<?xml version="1.0" encoding="utf-8"?>
<svg xmlns="http://www.w3.org/2000/svg" width="50" height="50" viewBox="0 0 50 50" fill="#000000"><path d="M 20.4375 0 C 17.3415 -1.1842379e-15 13 1.8955 13 6.0625 C 13 11.7525 17.04175 16.68675 19.71875 19.96875 C 20.36075 20.75675 21.10625 21.69775 21.53125 22.34375 C 20.86125 22.05675 19.90525 21.5395 19.03125 21.0625 C 15.84825 19.3245 11.4875 16.9375 6.9375 16.9375 C 5.9705 16.9375 3.58175 17.128 2.09375 19 C 1.03275 20.335 0.742 22.1185 1.25 24.3125 C 1.63 25.9505 2.199 26.8945 2.625 27.5625 C 2.858 27.9255 3.04075 28.1855 3.09375 28.4375 C 3.15275 28.7195 3.1095 29.27 3.0625 29.875 C 2.9765 30.985 2.8425 32.52325 3.1875 34.15625 C 3.7565 36.85225 5.80875 40 9.71875 40 C 10.22275 40 10.7755 39.9215 11.3125 39.8125 C 15.7425 38.9215 19.21 34.57825 21.75 31.40625 C 22.345653 30.662722 23.061606 29.81013 23.6875 29.125 C 22.946775 34.674578 23.120982 41.821523 26.875 47.96875 L 26.96875 48.125 C 27.68175 49.321 29.018 50 30.625 50 C 31.811 50 33.3095 49.57425 33.8125 48.65625 C 34.0585 48.20725 34.05225 47.70625 33.78125 47.28125 C 33.73225 47.20425 33.66175 47.1245 33.59375 47.0625 C 28.800283 42.799021 27.386655 36.312226 26.25 28.3125 C 27.544219 28.953797 29.06475 30.429 30.65625 31.96875 C 33.13825 34.37075 35.97075 37.107 39.34375 38.25 C 39.96275 38.46 40.604 38.5625 41.25 38.5625 C 43.965 38.5625 46.4075 36.67425 46.9375 34.15625 C 47.2845 32.51625 47.1495 31.14325 47.0625 30.15625 C 47.0145 29.61325 47.0045 29.152 47.0625 28.875 C 47.1185 28.61 47.273 28.3295 47.5 27.9375 C 47.907 27.2345 48.4645 26.274 48.8125 24.625 C 49.1945 22.806 49.082 20.2335 47.625 18.4375 C 46.902 17.5475 45.5225 16.46875 43.0625 16.46875 C 38.5175 16.46875 34.14975 19.00675 30.96875 20.84375 C 30.19375 21.29075 29.32625 21.804 28.65625 22.125 C 29.11825 21.391 29.852 20.375 30.5 19.5 C 33.301 15.72 37.125 10.5225 37.125 5.5625 C 37.125 2.3365 34.0065 0 29.6875 0 C 28.0165 1.110223e-16 26.93825 0.289 26.15625 0.5 C 25.28025 0.736 24.85275 0.74 23.96875 0.5 C 23.18575 0.289 22.1085 0 20.4375 0 z" fill="#000000"/></svg>
