<?xml version="1.0" encoding="utf-8"?>
<svg xmlns="http://www.w3.org/2000/svg" viewBox="0 0 50 50" fill="#000000"><path d="M 25 1 C 11.7 1 1 11.7 1 25 C 1 38.3 11.7 49 25 49 C 38.3 49 49 38.3 49 25 C 49 20.1 47.5 15.6125 45 11.8125 L 43.40625 13.40625 L 42.8125 14 L 42 14 L 40.1875 14 L 38.1875 16 C 39.8875 18.6 41 21.7 41 25 C 41 33.8 33.8 41 25 41 C 16.2 41 9 33.8 9 25 C 9 16.2 16.2 9 25 9 C 28.3 9 31.4 10.0125 34 11.8125 L 36 9.8125 L 36 8 L 36 7.1875 L 36.59375 6.59375 L 38.1875 5 C 34.3875 2.5 29.9 1 25 1 z M 43 3 L 38 8 L 38 10.59375 L 24.40625 24.21875 C 24.165604 24.401365 24 24.674609 24 25 C 24 25.552285 24.447715 26 25 26 C 25.325391 26 25.598635 25.834396 25.78125 25.59375 L 39.40625 12 L 42 12 L 47 7 L 43 7 L 43 3 z M 25 16 C 20 16 16 20 16 25 C 16 30 20 34 25 34 C 30 34 34 30 34 25 C 34 23.6 33.69375 22.29375 33.09375 21.09375 L 27.09375 27.09375 C 26.59375 27.69375 25.8 28 25 28 C 23.3 28 22 26.7 22 25 C 22 24.2 22.30625 23.40625 22.90625 22.90625 L 28.90625 16.90625 C 27.70625 16.30625 26.4 16 25 16 z" fill="#000000"/></svg>
