<?xml version="1.0" encoding="utf-8"?>
<!-- Generator: Adobe Illustrator 19.2.1, SVG Export Plug-In . SVG Version: 6.00 Build 0)  -->
<svg xmlns="http://www.w3.org/2000/svg" xmlns:xlink="http://www.w3.org/1999/xlink" version="1.1" id="Layer_1" x="0px" y="0px" viewBox="0 0 50 50" style="enable-background:new 0 0 50 50" xml:space="preserve" fill="#000000">
<path style="fill:none;stroke:#000000;stroke-width:2;stroke-linecap:round;stroke-linejoin:round;stroke-miterlimit:10" d="  M38.397,8.061c8.344,5.762,9.499,18.336,9.499,18.336" fill="#000000"/>
<path style="fill:none;stroke:#000000;stroke-width:2;stroke-linecap:round;stroke-linejoin:round;stroke-miterlimit:10" d="  M16.565,4.496C18.688,3.577,21.147,3,24,3c4.152,0,7.618,0.958,10.5,2.458" fill="#000000"/>
<path style="fill:none;stroke:#000000;stroke-width:2;stroke-linecap:round;stroke-linejoin:round;stroke-miterlimit:10" d="  M4.008,16.805c1.38-1.076,3.936-6.74,9.278-10.471" fill="#000000"/>
<path style="fill:none;stroke:#000000;stroke-width:2;stroke-linecap:round;stroke-linejoin:round;stroke-miterlimit:10" d="  M21.175,37.792c-1.813,2.748-4.476,5.402-8.38,7.108" fill="#000000"/>
<path style="fill:none;stroke:#000000;stroke-width:2;stroke-linecap:round;stroke-linejoin:round;stroke-miterlimit:10" d="M25,27  c0,0-0.234,3.47-2.031,7.505" fill="#000000"/>
<path style="fill:none;stroke:#000000;stroke-width:2;stroke-linecap:round;stroke-linejoin:round;stroke-miterlimit:10" d="  M23.448,22.381c-2.652,1.438-3.167,6.603-4.704,9.563C16.665,35.949,12.616,40,7,40" fill="#000000"/>
<path style="fill:none;stroke:#000000;stroke-width:2;stroke-linecap:round;stroke-linejoin:round;stroke-miterlimit:10" d="  M19.526,47.548C26.707,42.422,29,31.587,29,28.13c0-2.435-0.57-4.581-2.016-5.563" fill="#000000"/>
<path style="fill:none;stroke:#000000;stroke-width:2;stroke-linecap:round;stroke-linejoin:round;stroke-miterlimit:10" d="  M14.323,28.019C12.342,31.707,9.821,35,3.97,35" fill="#000000"/>
<path style="fill:none;stroke:#000000;stroke-width:2;stroke-linecap:round;stroke-linejoin:round;stroke-miterlimit:10" d="  M33.299,24.483C32.167,21.002,29.589,18,25,18c-4.805,0-6.96,2.902-8.773,6.308" fill="#000000"/>
<path style="fill:none;stroke:#000000;stroke-width:2;stroke-linecap:round;stroke-linejoin:round;stroke-miterlimit:10" d="  M27.763,47.652c0,0,6.237-7.893,6.237-18.652" fill="#000000"/>
<path style="fill:none;stroke:#000000;stroke-width:2;stroke-linecap:round;stroke-linejoin:round;stroke-miterlimit:10" d="  M14.615,18.588C10.784,23.771,8.948,30.602,2.4,30" fill="#000000"/>
<path style="fill:none;stroke:#000000;stroke-width:2;stroke-linecap:round;stroke-linejoin:round;stroke-miterlimit:10" d="  M27.707,13.234C26.843,13.08,25.94,13,25,13c-3.268,0-5.668,1.021-7.57,2.564" fill="#000000"/>
<path style="fill:none;stroke:#000000;stroke-width:2;stroke-linecap:round;stroke-linejoin:round;stroke-miterlimit:10" d="  M38.382,35.154C38.746,33.153,39,31.03,39,29c0-6.832-2.845-12.113-7.604-14.54" fill="#000000"/>
<path style="fill:none;stroke:#000000;stroke-width:2;stroke-linecap:round;stroke-linejoin:round;stroke-miterlimit:10" d="  M35.833,44.5c0,0,0.804-2.115,1.601-5.131" fill="#000000"/>
<path style="fill:none;stroke:#000000;stroke-width:2;stroke-linecap:round;stroke-linejoin:round;stroke-miterlimit:10" d="  M6.56,21.405C5.336,23.074,4.024,24.405,2.292,25" fill="#000000"/>
<path style="fill:none;stroke:#000000;stroke-width:2;stroke-linecap:round;stroke-linejoin:round;stroke-miterlimit:10" d="  M20.932,8.377c-6.543,1.299-9.61,5.73-12.184,9.736" fill="#000000"/>
<path style="fill:none;stroke:#000000;stroke-width:2;stroke-linecap:round;stroke-linejoin:round;stroke-miterlimit:10" d="  M42.167,38.25C44.072,32.378,46.062,9.231,25,8" fill="#000000"/>
</svg>
