<?xml version="1.0" encoding="utf-8"?>
<!-- Generator: Adobe Illustrator 15.0.0, SVG Export Plug-In . SVG Version: 6.00 Build 0)  -->
<!DOCTYPE svg PUBLIC "-//W3C//DTD SVG 1.1//EN" "http://www.w3.org/Graphics/SVG/1.1/DTD/svg11.dtd">
<svg xmlns="http://www.w3.org/2000/svg" xmlns:xlink="http://www.w3.org/1999/xlink" version="1.1" id="Слой_1" x="0px" y="0px" width="50px" height="50px" viewBox="0 0 50 50" enable-background="new 0 0 50 50" xml:space="preserve" fill="#000000">
<path d="M25,3c-7.225,0-15,1.564-15,5v32c0,3.925,6.589,7,15,7s15-3.075,15-7V8C40,4.564,32.225,3,25,3z M15,11c0-0.6,0.4-1,1-1h18  c0.6,0,1,0.4,1,1v12c0,0.6-0.4,1-1,1H16c-0.6,0-1-0.4-1-1V11z M16,39c0,0.553-0.448,1-1,1s-1-0.447-1-1v-1c0-0.553,0.448-1,1-1  s1,0.447,1,1V39z M16,35c0,0.553-0.448,1-1,1s-1-0.447-1-1v-1c0-0.553,0.448-1,1-1s1,0.447,1,1V35z M20,40c0,0.553-0.448,1-1,1  s-1-0.447-1-1v-1c0-0.553,0.448-1,1-1s1,0.447,1,1V40z M20,36c0,0.553-0.448,1-1,1s-1-0.447-1-1v-1c0-0.553,0.448-1,1-1s1,0.447,1,1  V36z M20,30c0,0.553-0.448,1-1,1s-1-0.447-1-1v-2h-2c-0.552,0-1-0.447-1-1s0.448-1,1-1h3c0.552,0,1,0.447,1,1V30z M24,41  c0,0.553-0.448,1-1,1s-1-0.447-1-1v-1c0-0.553,0.448-1,1-1s1,0.447,1,1V41z M24,37c0,0.553-0.448,1-1,1s-1-0.447-1-1v-1  c0-0.553,0.448-1,1-1s1,0.447,1,1V37z M28,41c0,0.553-0.447,1-1,1s-1-0.447-1-1v-1c0-0.553,0.447-1,1-1s1,0.447,1,1V41z M28,37  c0,0.553-0.447,1-1,1s-1-0.447-1-1v-1c0-0.553,0.447-1,1-1s1,0.447,1,1V37z M28,30c0,0.553-0.447,1-1,1h-4c-0.552,0-1-0.447-1-1v-3  c0-0.553,0.448-1,1-1h4c0.553,0,1,0.447,1,1V30z M32,40c0,0.553-0.447,1-1,1s-1-0.447-1-1v-1c0-0.553,0.447-1,1-1s1,0.447,1,1V40z   M32,36c0,0.553-0.447,1-1,1s-1-0.447-1-1v-1c0-0.553,0.447-1,1-1s1,0.447,1,1V36z M32,30c0,0.553-0.447,1-1,1s-1-0.447-1-1v-3  c0-0.553,0.447-1,1-1h3c0.553,0,1,0.447,1,1s-0.447,1-1,1h-2V30z M36,39c0,0.553-0.447,1-1,1s-1-0.447-1-1v-1c0-0.553,0.447-1,1-1  s1,0.447,1,1V39z M36,35c0,0.553-0.447,1-1,1s-1-0.447-1-1v-1c0-0.553,0.447-1,1-1s1,0.447,1,1V35z" fill="#000000"/>
</svg>
