<?xml version="1.0" encoding="utf-8"?>
<!-- Generator: Adobe Illustrator 15.0.0, SVG Export Plug-In . SVG Version: 6.00 Build 0)  -->
<!DOCTYPE svg PUBLIC "-//W3C//DTD SVG 1.1//EN" "http://www.w3.org/Graphics/SVG/1.1/DTD/svg11.dtd">
<svg xmlns="http://www.w3.org/2000/svg" xmlns:xlink="http://www.w3.org/1999/xlink" version="1.1" id="Слой_1" x="0px" y="0px" width="50px" height="50px" viewBox="0 0 50 50" enable-background="new 0 0 50 50" xml:space="preserve" fill="#000000">
<rect x="13.9" y="11" width="22" height="2" fill="#000000"/>
<rect x="13.9" y="16" width="16" height="2" fill="#000000"/>
<rect x="13.9" y="21" width="22" height="2" fill="#000000"/>
<rect x="13.9" y="26" width="16" height="2" fill="#000000"/>
<rect x="13.9" y="31" width="22" height="2" fill="#000000"/>
<path d="M41,0H9C6.757,0,5,1.757,5,4v40.5c0,1.924,1.39,3.598,3.316,3.982C10.75,48.939,17.25,50,25,50  c7.75,0,14.25-1.061,16.709-1.522C43.646,48.063,45,46.428,45,44.5V4C45,1.757,43.243,0,41,0z M15,45c-0.552,0-1-0.447-1-1  s0.448-1,1-1s1,0.447,1,1S15.552,45,15,45z M19,45c-0.552,0-1-0.447-1-1s0.448-1,1-1s1,0.447,1,1S19.552,45,19,45z M28,45  c0,0.6-0.4,1-1,1h-4c-0.6,0-1-0.4-1-1v-2c0-0.6,0.4-1,1-1h4c0.6,0,1,0.4,1,1V45z M31,45c-0.553,0-1-0.447-1-1s0.447-1,1-1  s1,0.447,1,1S31.553,45,31,45z M35,45c-0.553,0-1-0.447-1-1s0.447-1,1-1s1,0.447,1,1S35.553,45,35,45z M40,39H10V5h30V39z" fill="#000000"/>
</svg>
