<?xml version="1.0" encoding="utf-8"?>
<!-- Generator: Adobe Illustrator 18.1.1, SVG Export Plug-In . SVG Version: 6.00 Build 0)  -->
<svg xmlns="http://www.w3.org/2000/svg" xmlns:xlink="http://www.w3.org/1999/xlink" version="1.1" id="Layer_1" x="0px" y="0px" viewBox="0 0 50 50" enable-background="new 0 0 50 50" xml:space="preserve" fill="#000000">
<path fill="none" stroke="#000000" stroke-width="2" stroke-linecap="round" stroke-linejoin="round" stroke-miterlimit="10" d="  M40.9,30.3c-0.2-0.5-0.6-0.8-1-0.9l-9.5-1.4l-4.2-8.5c-0.4-0.9-1.9-0.9-2.3,0l-4.2,8.5l-9.5,1.4c-0.5,0.1-0.9,0.4-1,0.9  c-0.2,0.5,0,1,0.3,1.3l6.9,6.6l-1.6,9.3c-0.1,0.5,0.1,1,0.5,1.2c0.4,0.3,0.9,0.3,1.4,0.1l8.5-4.4l8.5,4.4c0.2,0.1,0.4,0.1,0.6,0.1  c0.3,0,0.5-0.1,0.8-0.2c0.4-0.3,0.6-0.8,0.5-1.2l-1.6-9.3l6.9-6.6C41,31.3,41.1,30.8,40.9,30.3z"/>
<path fill="none" stroke="#000000" stroke-width="2" stroke-linecap="round" stroke-linejoin="round" stroke-miterlimit="10" d="  M25,1H12v3.8c0,1,0.8,2.5,1.9,3.2l9.3,5.4c1,0.7,2.7,0.7,3.7,0L36.1,8c1-0.7,1.9-2.2,1.9-3.2V1H25z"/>
<path fill="none" stroke="#000000" stroke-width="2" stroke-linecap="round" stroke-linejoin="round" stroke-miterlimit="10" d="  M23.2,18c-1,0-1.8-0.9-1.8-2v-2h7v2c0,1.1-0.8,2-1.8,2H23.2z"/>
</svg>
