<?xml version="1.0" encoding="utf-8"?>
<!-- Generator: Adobe Illustrator 15.0.0, SVG Export Plug-In . SVG Version: 6.00 Build 0)  -->
<!DOCTYPE svg PUBLIC "-//W3C//DTD SVG 1.1//EN" "http://www.w3.org/Graphics/SVG/1.1/DTD/svg11.dtd">
<svg xmlns="http://www.w3.org/2000/svg" xmlns:xlink="http://www.w3.org/1999/xlink" version="1.1" id="Слой_1" x="0px" y="0px" width="50px" height="50px" viewBox="0 0 50 50" enable-background="new 0 0 50 50" xml:space="preserve" fill="#000000">
<rect x="40.471" y="23.836" width="2.736" height="8.225" fill="#000000"/>
<ellipse cx="41.866" cy="21.535" rx="1.59" ry="1.47" fill="#000000"/>
<polygon points="29.688,20.749 38.783,20.749 38.783,23.42 32.617,23.42 32.617,25.943 38.175,25.943 38.175,28.586 32.617,28.586   32.617,32.029 29.688,32.029 " fill="#000000"/>
<path d="M41,14h-4.029c-0.044-0.075-0.083-0.154-0.149-0.218C33.634,10.698,29.436,9,25,9c-4.553,0-8.826,1.776-12.038,5H9  c-4.962,0-9,4.038-9,9v6c0,4.963,4.038,9,9,9h3.983c3.21,3.219,7.452,5,12.017,5c4.558,0,8.82-1.778,12.032-5H41  c4.963,0,9-4.037,9-9v-6C50,18.038,45.963,14,41,14z M15.336,32.12h-2.71l-1.189-7.007l-1.161,7.007H7.595L5.051,20.749h3.042  l0.885,6.649l1.161-6.649h2.682l1.134,6.649l0.912-6.68h2.986L15.336,32.12z M20.521,20.066c0.878,0,1.59,0.658,1.59,1.47  s-0.712,1.47-1.59,1.47s-1.59-0.658-1.59-1.47S19.643,20.066,20.521,20.066z M21.862,23.836v8.225h-2.737v-8.225H21.862z M48,29  c0,3.859-3.141,7-7,7h-3.968H23.647H20h-1c0,0,6,0,6-6v-1v-8c0-4.824,4.491-4.996,5-5h11c3.859,0,7,3.14,7,7V29z" fill="#000000"/>
</svg>
