<?xml version="1.0" encoding="utf-8"?>
<svg xmlns="http://www.w3.org/2000/svg" width="50" height="50" viewBox="0 0 50 50" fill="#000000"><path style="text-indent:0;text-align:start;line-height:normal;text-transform:none;block-progression:tb;-inkscape-font-specification:Bitstream Vera Sans" d="M 19 5 C 17.354937 5 16 6.3549372 16 8 L 16 11 L 3 11 C 1.346 11 0 12.346 0 14 L 0 22 L 9 22 C 9 20.897 9.897 20 11 20 L 16 20 C 17.103 20 18 20.897 18 22 L 32 22 C 32 20.897 32.897 20 34 20 L 39 20 C 40.103 20 41 20.897 41 22 L 50 22 L 50 14 C 50 12.346 48.654 11 47 11 L 34 11 L 34 8 C 34 6.3549372 32.645063 5 31 5 L 19 5 z M 19 7 L 31 7 C 31.562937 7 32 7.4370628 32 8 L 32 11 L 18 11 L 18 8 C 18 7.4370628 18.437063 7 19 7 z M 11 22 L 11 24 L 16 24 L 16 23 L 16 22 L 11 22 z M 34 22 L 34 24 L 39 24 L 39 23 L 39 22 L 34 22 z M 0 24 L 0 42 C 0 43.654 1.346 45 3 45 L 47 45 C 48.654 45 50 43.654 50 42 L 50 24 L 41 24 C 41 25.103 40.103 26 39 26 L 34 26 C 32.897 26 32 25.103 32 24 L 18 24 C 18 25.103 17.103 26 16 26 L 11 26 C 9.897 26 9 25.103 9 24 L 0 24 z" color="#000" overflow="visible" enable-background="accumulate" font-family="Bitstream Vera Sans" fill="#000000"/></svg>
