<?xml version="1.0" encoding="utf-8"?>
<svg xmlns="http://www.w3.org/2000/svg" width="50" height="50" viewBox="0 0 50 50" fill="#000000"><path d="M 25 3 C 12.869 3 3 12.869 3 25 C 3 37.131 12.869 47 25 47 C 37.131 47 47 37.131 47 25 C 47 12.869 37.131 3 25 3 z M 18.46875 17.625 C 22.53075 17.625 25.03125 20.459 25.03125 25 C 25.03125 29.53 22.55075 32.375 18.46875 32.375 C 14.37675 32.375 11.875 29.541 11.875 25 C 11.875 20.449 14.42575 17.625 18.46875 17.625 z M 32.8125 17.625 C 35.6735 17.625 37.77925 19.28325 37.90625 21.65625 L 35.78125 21.65625 C 35.57625 20.35725 34.42225 19.5625 32.78125 19.5625 C 31.05225 19.5625 29.90625 20.38625 29.90625 21.65625 C 29.90625 22.66225 30.664 23.22625 32.5 23.65625 L 34.03125 24.03125 C 36.92325 24.70525 38.125 25.881 38.125 28 C 38.125 30.695 36.0285 32.40625 32.6875 32.40625 C 29.5625 32.40625 27.4685 30.77 27.3125 28.25 L 29.46875 28.25 C 29.65475 29.589 30.99 30.4375 32.875 30.4375 C 34.633 30.4375 35.90625 29.53125 35.90625 28.28125 C 35.90625 27.20725 35.08475 26.564 33.21875 26.125 L 31.40625 25.6875 C 28.85725 25.0915 27.6875 23.85225 27.6875 21.78125 C 27.6875 19.27125 29.7365 17.625 32.8125 17.625 z M 18.46875 19.65625 C 15.81275 19.65625 14.125 21.729 14.125 25 C 14.125 28.252 15.76375 30.34375 18.46875 30.34375 C 21.14475 30.34375 22.78125 28.252 22.78125 25 C 22.78125 21.729 21.14475 19.65625 18.46875 19.65625 z" fill="#000000"/></svg>
