<?xml version="1.0" encoding="utf-8"?>
<!-- Generator: Adobe Illustrator 19.1.0, SVG Export Plug-In . SVG Version: 6.00 Build 0)  -->
<svg xmlns="http://www.w3.org/2000/svg" xmlns:xlink="http://www.w3.org/1999/xlink" version="1.1" id="Layer_1" x="0px" y="0px" viewBox="0 0 50 50" style="enable-background:new 0 0 50 50" xml:space="preserve" fill="#000000">
<polyline style="fill:none;stroke:#000000;stroke-width:2;stroke-linejoin:round;stroke-miterlimit:10" points="29,7 38,7 38,43   29,43 " fill="#000000"/>
<polygon style="fill:none;stroke:#000000;stroke-width:2;stroke-linecap:round;stroke-linejoin:round;stroke-miterlimit:10" points="  27,46 12,43 12,7 27,4 " fill="#000000"/>
<line style="fill:none;stroke:#000000;stroke-width:2;stroke-linecap:round;stroke-linejoin:round;stroke-miterlimit:10" x1="23" y1="30" x2="23" y2="26" fill="#000000"/>
<path style="fill:none;stroke:#000000;stroke-width:2;stroke-linejoin:round;stroke-miterlimit:10" d="M7.805,15.5  C6.678,18.118,6,21.411,6,25s0.678,6.882,1.805,9.5" fill="#000000"/>
<path style="fill:none;stroke:#000000;stroke-width:2;stroke-linejoin:round;stroke-miterlimit:10" d="M4.256,14  C2.848,17.031,2,20.845,2,25s0.848,7.969,2.256,11" fill="#000000"/>
<path style="fill:none;stroke:#000000;stroke-width:2;stroke-linejoin:round;stroke-miterlimit:10" d="M42.195,34.5  C43.322,31.882,44,28.589,44,25s-0.678-6.882-1.805-9.5" fill="#000000"/>
<path style="fill:none;stroke:#000000;stroke-width:2;stroke-linejoin:round;stroke-miterlimit:10" d="M45.744,36  C47.152,32.969,48,29.155,48,25s-0.848-7.969-2.256-11" fill="#000000"/>
</svg>
