<?xml version="1.0" encoding="utf-8"?>
<!-- Generator: Adobe Illustrator 18.1.1, SVG Export Plug-In . SVG Version: 6.00 Build 0)  -->
<svg xmlns="http://www.w3.org/2000/svg" xmlns:xlink="http://www.w3.org/1999/xlink" version="1.1" id="Layer_1" x="0px" y="0px" viewBox="0 0 50 50" enable-background="new 0 0 50 50" xml:space="preserve" fill="#000000">
<circle fill="none" stroke="#000000" stroke-width="2" stroke-linecap="round" stroke-miterlimit="10" cx="39" cy="11" r="3"/>
<path fill="none" stroke="#000000" stroke-width="2" stroke-linecap="round" stroke-miterlimit="10" d="M47,5.5  C47,4.1,45.9,3,44.5,3c-0.2,0-14.9,0-14.9,0c-1.3,0-2.6-0.1-3.3,0.7L3.6,26.4c-0.7,0.7-0.7,1.9,0,2.7l17.4,17.4  c0.7,0.7,1.9,0.7,2.7,0l22.7-22.7c0.7-0.7,0.7-2,0.7-3.3C47,20.4,47,5.7,47,5.5z"/>
<path d="M26.7,32.6c2.3-2.3,1.1-4.9-0.3-7.2c-1.2-1.9-2.1-3.6-0.7-5c0.6-0.6,2.3-1.8,4.4,0.3c1.5,1.5,1.3,3.1,0.4,4.4l1.4,1.4  c1.1-2,1.9-4.1,0.2-6.5l1.6-1.6l-1.4-1.4l-1.6,1.6c-1.3-1-4.3-2.1-6.7,0.3c-4.5,4.5,4.4,8.8,1,12.2c-1.2,1.2-2.7,1.7-4.9-0.5  c-2.2-2.2-1.1-4.5-0.2-5.4l-1.4-1.4c-2.8,3.3-1.4,6.1-0.4,7.5l-1.4,1.4l1.4,1.4l1.3-1.3C20.7,33.7,24,35.4,26.7,32.6z" fill="#000000"/>
</svg>
