<?xml version="1.0" encoding="utf-8"?>
<svg xmlns="http://www.w3.org/2000/svg" width="50" height="50" viewBox="0 0 50 50" fill="#000000"><path d="M 22 0 C 19.757 0 18 1.757 18 4 L 18 20 C 18 22.243 19.757 24 22 24 L 37.625 24 L 45.34375 30.75 C 45.52875 30.912 45.763 31 46 31 C 46.14 31 46.27425 30.96725 46.40625 30.90625 C 46.76425 30.74425 47 30.393 47 30 L 47 23.875 C 48.744 23.442 50 21.897 50 20 L 50 4 C 50 1.757 48.243 0 46 0 L 22 0 z M 33 6.09375 L 35.09375 6.09375 L 37.5 17.59375 L 35.6875 17.59375 L 35.09375 14.59375 L 32.90625 14.59375 L 32.3125 17.59375 L 30.5 17.59375 L 33 6.09375 z M 34 8 C 33.9 8.8 33.69375 9.89375 33.59375 10.59375 L 33.09375 13.1875 L 35 13.1875 L 34.5 10.59375 C 34.3 9.89375 34.19375 8.8 34.09375 8 L 34 8 z M 4 19 C 1.757 19 0 20.757 0 23 L 0 39 C 0 40.896 1.256 42.441 3 42.875 L 3 49 C 3 49.393 3.23575 49.74425 3.59375 49.90625 C 3.72575 49.96725 3.86 50 4 50 C 4.238 50 4.47025 49.912 4.65625 49.75 L 12.375 43 L 28 43 C 30.243 43 32 41.243 32 39 L 32 26 L 22 26 C 18.636 26 16 23.364 16 20 L 16 19 L 4 19 z M 15.59375 25 C 17.99375 25 18.90625 27.5875 18.90625 30.6875 C 18.90625 33.6875 18.19375 35.4 17.09375 36 L 17.09375 36.09375 C 17.79375 36.39475 18.6125 36.70625 19.3125 36.90625 L 18.6875 38.3125 C 17.7875 37.9135 16.60625 37.30525 15.90625 36.90625 C 15.70625 36.80525 15.50625 36.6875 15.40625 36.6875 C 13.30625 36.6875 12 34.7125 12 30.8125 C 12 27.4135 13.29375 25 15.59375 25 z M 15.5 26.5 C 14.3 26.5 13.90625 28.5875 13.90625 30.6875 C 13.90625 33.0865 14.3 35.09375 15.5 35.09375 C 16.6 35.09375 17 33.0865 17 30.6875 C 17 28.4875 16.6 26.5 15.5 26.5 z" fill="#000000"/></svg>
