<?xml version="1.0" encoding="utf-8"?>
<svg xmlns="http://www.w3.org/2000/svg" width="50" height="50" viewBox="0 0 50 50" fill="#000000"><path d="M 12 0 C 11.448 0 11 0.448 11 1 L 11 4.78125 C 11 6.13525 11.98925 7.8685 13.28125 8.8125 C 13.30825 8.8325 13.31575 8.858 13.34375 8.875 L 19.09375 12.21875 C 19.64175 11.47775 20.511 11 21.5 11 L 28.5 11 C 29.489 11 30.35925 11.47875 30.90625 12.21875 L 36.65625 8.875 C 36.68525 8.858 36.69175 8.8325 36.71875 8.8125 C 38.01175 7.8685 39 6.13625 39 4.78125 L 39 1 C 39 0.448 38.553 0 38 0 L 12 0 z M 21.5 13 C 20.948 13 20.5 13.448 20.5 14 L 20.5 15 C 20.5 16.654 21.733 18 23.25 18 L 26.75 18 C 28.267 18 29.5 16.654 29.5 15 L 29.5 14 C 29.5 13.448 29.053 13 28.5 13 L 21.5 13 z M 23.15625 20 L 19.25 27.75 L 9.1875 29.1875 C 8.6705 29.2605 8.2235 29.60775 8.0625 30.09375 C 7.9015 30.58475 8.03225 31.141 8.40625 31.5 L 15.71875 38.46875 L 14 48.34375 C 13.912 48.84975 14.10925 49.3875 14.53125 49.6875 C 14.95525 49.9905 15.50575 50.01925 15.96875 49.78125 L 25 45.125 L 34.03125 49.78125 C 34.23025 49.88525 34.43925 49.9375 34.65625 49.9375 C 34.94125 49.9375 35.22875 49.8595 35.46875 49.6875 C 35.89175 49.3875 36.087 48.84875 36 48.34375 L 34.28125 38.46875 L 41.59375 31.5 C 41.96775 31.143 42.0985 30.58475 41.9375 30.09375 C 41.7755 29.60675 41.3285 29.2605 40.8125 29.1875 L 30.75 27.75 L 26.84375 20 L 23.15625 20 z" fill="#000000"/></svg>
