<?xml version="1.0" encoding="utf-8"?>
<!-- Generator: Adobe Illustrator 15.0.0, SVG Export Plug-In . SVG Version: 6.00 Build 0)  -->
<!DOCTYPE svg PUBLIC "-//W3C//DTD SVG 1.1//EN" "http://www.w3.org/Graphics/SVG/1.1/DTD/svg11.dtd">
<svg xmlns="http://www.w3.org/2000/svg" xmlns:xlink="http://www.w3.org/1999/xlink" version="1.1" id="Слой_1" x="0px" y="0px" width="50px" height="50px" viewBox="0 0 50 50" enable-background="new 0 0 50 50" xml:space="preserve" fill="#000000">
<path d="M36,3H14c-1.654,0-3,1.346-3,3v38c0,1.654,1.346,3,3,3h22c1.654,0,3-1.346,3-3V6C39,4.346,37.654,3,36,3z M25,5.5  c0.553,0,1,0.448,1,1s-0.447,1-1,1c-0.552,0-1-0.448-1-1S24.448,5.5,25,5.5z M28,44h-6c-0.552,0-1-0.447-1-1s0.448-1,1-1h6  c0.553,0,1,0.447,1,1S28.553,44,28,44z M34,40H16V9h18V40z" fill="#000000"/>
</svg>
