<?xml version="1.0" encoding="utf-8"?>
<!-- Generator: Adobe Illustrator 19.1.0, SVG Export Plug-In . SVG Version: 6.00 Build 0)  -->
<svg xmlns="http://www.w3.org/2000/svg" xmlns:xlink="http://www.w3.org/1999/xlink" version="1.1" id="Layer_1" x="0px" y="0px" viewBox="0 0 50 50" style="enable-background:new 0 0 50 50" xml:space="preserve" fill="#000000">
<g fill="#000000">
	<path d="M25.02,24.995c0,4.531-2.48,7.393-6.562,7.393c-4.092,0-6.582-2.852-6.582-7.393c0-4.551,2.539-7.383,6.582-7.383   C22.52,17.612,25.02,20.454,25.02,24.995z M14.111,24.995c0,3.252,1.641,5.352,4.346,5.352c2.676,0,4.326-2.1,4.326-5.352   c0-3.271-1.65-5.342-4.326-5.342C15.801,19.653,14.111,21.724,14.111,24.995z" fill="#000000"/>
	<path d="M29.482,28.257c0.186,1.338,1.494,2.188,3.379,2.188c1.758,0,3.047-0.908,3.047-2.158c0-1.074-0.82-1.719-2.686-2.158   l-1.816-0.439c-2.549-0.596-3.711-1.826-3.711-3.896c0-2.51,2.051-4.18,5.127-4.18c2.861,0,4.951,1.67,5.078,4.043h-2.129   c-0.205-1.299-1.338-2.109-2.979-2.109c-1.729,0-2.881,0.83-2.881,2.1c0,1.006,0.742,1.582,2.578,2.012l1.553,0.381   c2.891,0.674,4.082,1.846,4.082,3.965c0,2.695-2.09,4.385-5.43,4.385c-3.125,0-5.225-1.611-5.381-4.131H29.482z" fill="#000000"/>
</g>
<circle style="fill:none;stroke:#000000;stroke-width:2;stroke-miterlimit:10" cx="25" cy="25" r="21" fill="#000000"/>
</svg>
