<?xml version="1.0" encoding="utf-8"?>
<svg xmlns="http://www.w3.org/2000/svg" viewBox="0 0 50 50" fill="#000000"><path d="M 5 2 C 3.346 2 2 3.346 2 5 L 2 45 C 2 46.654 3.346 48 5 48 L 45 48 C 46.654 48 48 46.654 48 45 L 48 28.59375 L 39.96875 36.625 L 39.96875 46 L 10.03125 46 L 10.03125 28.8125 C 10.03125 27.2825 11.2825 26.03125 12.8125 26.03125 L 33.375 26.03125 L 41.625 17.78125 C 43.345 16.06125 45.849 15.596 48 16.375 L 48 12 C 48 11.734 47.90675 11.46825 47.71875 11.28125 L 38.71875 2.28125 C 38.53175 2.09325 38.266 2 38 2 L 5 2 z M 12 4 L 35 4 C 36.103 4 37 4.897 37 6 L 37 17 C 37 18.103 36.103 19 35 19 L 12 19 C 10.897 19 10 18.103 10 17 L 10 6 C 10 4.897 10.897 4 12 4 z M 30 6 C 29.447 6 29 6.447 29 7 L 29 16 C 29 16.553 29.447 17 30 17 L 33 17 C 33.553 17 34 16.553 34 16 L 34 7 C 34 6.447 33.553 6 33 6 L 30 6 z M 45.9375 18 C 44.894375 18.00025 43.82675 18.392 43.03125 19.1875 L 42.8125 19.4375 A 1.0001 1.0001 0 0 0 42.59375 19.625 L 42.34375 19.875 L 26.90625 35.3125 A 1.0001 1.0001 0 0 0 26.625 35.75 L 25.03125 41.75 A 1.0001 1.0001 0 0 0 26.25 42.96875 L 32.25 41.375 A 1.0001 1.0001 0 0 0 32.6875 41.09375 L 48.125 25.65625 C 48.123545 25.657341 48.258793 25.522605 48.375 25.40625 A 1.0001 1.0001 0 0 0 48.5625 25.1875 C 48.668661 25.0813 48.8125 24.96875 48.8125 24.96875 C 50.4045 23.37675 50.4025 20.7785 48.8125 19.1875 C 48.0155 18.391 46.980625 17.99975 45.9375 18 z M 43.75 21.28125 L 46.71875 24.25 L 31.46875 39.5 L 31.40625 39.53125 L 28.46875 36.59375 L 28.5 36.53125 L 43.75 21.28125 z M 6 41 L 8 41 L 8 43 L 6 43 L 6 41 z M 42 41 L 44 41 L 44 43 L 42 43 L 42 41 z" fill="#000000"/></svg>
