<?xml version="1.0" encoding="utf-8"?>
<!-- Generator: Adobe Illustrator 18.1.0, SVG Export Plug-In . SVG Version: 6.00 Build 0)  -->
<!DOCTYPE svg PUBLIC "-//W3C//DTD SVG 1.0//EN" "http://www.w3.org/TR/2001/REC-SVG-20010904/DTD/svg10.dtd">
<svg xmlns="http://www.w3.org/2000/svg" xmlns:xlink="http://www.w3.org/1999/xlink" version="1.0" id="Layer_1" x="0px" y="0px" viewBox="0 0 50 50" style="enable-background:new 0 0 50 50" xml:space="preserve" fill="#000000">
<line style="fill:none;stroke:#000000;stroke-width:2;stroke-miterlimit:10" x1="13.9" y1="12" x2="35.9" y2="12" fill="#000000"/>
<line style="fill:none;stroke:#000000;stroke-width:2;stroke-miterlimit:10" x1="13.9" y1="17" x2="29.9" y2="17" fill="#000000"/>
<line style="fill:none;stroke:#000000;stroke-width:2;stroke-miterlimit:10" x1="13.9" y1="22" x2="35.9" y2="22" fill="#000000"/>
<line style="fill:none;stroke:#000000;stroke-width:2;stroke-miterlimit:10" x1="13.9" y1="27" x2="29.9" y2="27" fill="#000000"/>
<line style="fill:none;stroke:#000000;stroke-width:2;stroke-miterlimit:10" x1="13.9" y1="32" x2="35.9" y2="32" fill="#000000"/>
<path style="fill:none;stroke:#000000;stroke-width:2;stroke-miterlimit:10" d="M6,4v40.5c0,1.4,1,2.7,2.5,3  C11.7,48.1,17.9,49,25,49s13.3-0.9,16.5-1.5c1.4-0.3,2.5-1.5,2.5-3V4c0-1.7-1.3-3-3-3H9C7.3,1,6,2.3,6,4z" fill="#000000"/>
<rect x="10" y="5" style="fill:none;stroke:#000000;stroke-width:2;stroke-linecap:round;stroke-linejoin:round;stroke-miterlimit:10" width="30" height="34" fill="#000000"/>
<g fill="#000000">
	<path d="M27,46h-4c-0.6,0-1-0.4-1-1v-2c0-0.6,0.4-1,1-1h4c0.6,0,1,0.4,1,1v2C28,45.6,27.6,46,27,46z" fill="#000000"/>
</g>
<circle cx="31" cy="44" r="1" fill="#000000"/>
<circle cx="35" cy="44" r="1" fill="#000000"/>
<circle cx="15" cy="44" r="1" fill="#000000"/>
<circle cx="19" cy="44" r="1" fill="#000000"/>
</svg>
